<svg xmlns="http://www.w3.org/2000/svg" xmlns:xlink="http://www.w3.org/1999/xlink" viewBox="0 0 99.32 98.58"><defs><style>.cls-1{fill:none;}.cls-2{isolation:isolate;}.cls-3{fill:#496d31;}.cls-4{fill:#84a14f;}.cls-5{fill:#a50e32;}.cls-10,.cls-14,.cls-6{fill:#af1e3b;}.cls-7{clip-path:url(#clip-path);}.cls-8{fill:#990e35;}.cls-9{fill:#ad1742;}.cls-10,.cls-14,.cls-26{mix-blend-mode:multiply;}.cls-10,.cls-26{opacity:0.21;}.cls-11{clip-path:url(#clip-path-2);}.cls-12{fill:#9b1334;}.cls-13{fill:#b52d4e;}.cls-14{opacity:0.15;}.cls-15{opacity:0.07;}.cls-16,.cls-17,.cls-18{fill:#fff;}.cls-17,.cls-18{mix-blend-mode:screen;}.cls-17{opacity:0.13;}.cls-18{opacity:0.1;}.cls-19{clip-path:url(#clip-path-3);}.cls-20{fill:#79963c;}.cls-21{fill:#a04c13;}.cls-22{fill:#bc5b19;}.cls-23{fill:#c66524;}.cls-24{fill:#698234;}.cls-25{fill:#92b358;}</style><clipPath id="clip-path" transform="translate(20.07 5.2)"><path class="cls-1" d="M8.52,45.19c-3.8,2.29-6.07,6.61-6.73,11A21.1,21.1,0,0,0,8,74.32,6.32,6.32,0,0,0,9.9,75.68a7.67,7.67,0,0,0,2.12.47,26.8,26.8,0,0,0,5.29.24A16.74,16.74,0,0,0,27,71.9a27.4,27.4,0,0,0,6.18-8.84c1.3-2.83,2.28-6.1,1.18-9s-4-4.75-7-5.49a20.36,20.36,0,0,1-5.39-1.8c-1.21-.68-2.31-1.57-3.57-2.17A10.64,10.64,0,0,0,8.52,45.19Z"/></clipPath><clipPath id="clip-path-2" transform="translate(20.07 5.2)"><path class="cls-1" d="M37.56,54.7a8.65,8.65,0,0,0-.7,5.71,19.86,19.86,0,0,0,6.45,12.23,15.32,15.32,0,0,0,13.17,3.49,10.21,10.21,0,0,0,4.88-2.54C63,72,65.13,69.93,65.9,67.83c1.47-4,1.43-8.33,1-12.59-.52-4.93-3.93-9.84-9.21-10.15-4.78-.28-8.09,2.24-12.06,4.32C42.93,50.82,39.2,51.94,37.56,54.7Z"/></clipPath><clipPath id="clip-path-3" transform="translate(20.07 5.2)"><path class="cls-1" d="M51,6.77C45.89,4.49,40.49,2.17,34.88,2.5a33.63,33.63,0,0,0-5.63,1C26,4.23,22.61,5.09,19.79,7a22,22,0,0,0-5.14,5,42.13,42.13,0,0,0-7.6,15.61,46,46,0,0,1-1.79,6.58A15,15,0,0,1,0,40.65c.61.48,1.55,0,2.33,0a53.68,53.68,0,0,0,26.42-5.76A30.55,30.55,0,0,0,35,30.85c3.37-3,5.71-6.89,7.91-10.79q2.39-4.24,4.63-8.55C48.43,9.84,49.48,7.84,51,6.77Z"/></clipPath></defs><g class="cls-2"><g id="Capa_2" data-name="Capa 2"><g id="Layer_1" data-name="Layer 1"><g id="Layer_21" data-name="Layer 21"><path class="cls-3" d="M24,53.7a29,29,0,0,1,.36-7.23,45.55,45.55,0,0,1,1.7-8,53.05,53.05,0,0,1,6-11.4c1.3-2.08,2.66-4.22,4.14-6.23,3.9-5.29,9-10.17,16.16-15.36l2.55-1.86-1.9,2.52A39.91,39.91,0,0,0,47,42.33c.43,1.29.93,2.58,1.42,3.84a54,54,0,0,1,2.06,5.9l-.91.24a53,53,0,0,0-2-5.8c-.49-1.26-1-2.57-1.45-3.88A41,41,0,0,1,50.51,8,67.67,67.67,0,0,0,36.88,21.43c-1.47,2-2.81,4.11-4.11,6.17-2.22,3.53-4.53,7.18-5.86,11.19a46.1,46.1,0,0,0-1.66,7.81,28.67,28.67,0,0,0-.36,7Z" transform="translate(20.07 5.2)"/><path class="cls-4" d="M51,6.77C45.89,4.49,40.49,2.17,34.88,2.5a33.63,33.63,0,0,0-5.63,1C26,4.23,22.61,5.09,19.79,7a22,22,0,0,0-5.14,5,42.13,42.13,0,0,0-7.6,15.61,46,46,0,0,1-1.79,6.58A15,15,0,0,1,0,40.65c.61.48,1.55,0,2.33,0a53.68,53.68,0,0,0,26.42-5.76A30.55,30.55,0,0,0,35,30.85c3.37-3,5.71-6.89,7.91-10.79q2.39-4.24,4.63-8.55C48.43,9.84,49.48,7.84,51,6.77Z" transform="translate(20.07 5.2)"/><path class="cls-5" d="M8.52,45.19c-3.8,2.29-6.07,6.61-6.73,11A21.1,21.1,0,0,0,8,74.32,6.32,6.32,0,0,0,9.9,75.68a7.67,7.67,0,0,0,2.12.47,26.8,26.8,0,0,0,5.29.24A16.74,16.74,0,0,0,27,71.9a27.4,27.4,0,0,0,6.18-8.84c1.3-2.83,2.28-6.1,1.18-9s-4-4.75-7-5.49a20.36,20.36,0,0,1-5.39-1.8c-1.21-.68-2.31-1.57-3.57-2.17A10.64,10.64,0,0,0,8.52,45.19Z" transform="translate(20.07 5.2)"/><path class="cls-6" d="M37.56,54.7a8.65,8.65,0,0,0-.7,5.71,19.86,19.86,0,0,0,6.45,12.23,15.32,15.32,0,0,0,13.17,3.49,10.21,10.21,0,0,0,4.88-2.54C63,72,65.13,69.93,65.9,67.83c1.47-4,1.43-8.33,1-12.59-.52-4.93-3.93-9.84-9.21-10.15-4.78-.28-8.09,2.24-12.06,4.32C42.93,50.82,39.2,51.94,37.56,54.7Z" transform="translate(20.07 5.2)"/><g class="cls-7"><path class="cls-8" d="M24.14,44.86a11.69,11.69,0,0,0-7-3,14.79,14.79,0,0,0-7.22,1.47A15.93,15.93,0,0,0,1.34,53.77c-1.26,5.1.09,11.1,1.56,16a19,19,0,0,0,3.33,6.64c1.43,1.76,4.1,3.27,6.39,2.87a2,2,0,0,0,1.2-2.95,11.68,11.68,0,0,0-1.61-1.76c-.55-.6-1-1.29-1.52-1.93A13.73,13.73,0,0,1,8.47,68c-1-3.64-2.25-8.12-1.64-11.91a10.17,10.17,0,0,1,5.07-7.2c3-1.67,7.09-1.5,10.33-.69,1.78.44,3.5-2,1.91-3.3Z" transform="translate(20.07 5.2)"/><path class="cls-9" d="M26.81,50.4c2.34.35,3.72,2.44,4.29,4.62.79,3-.63,6.36-1.73,9.11a29,29,0,0,1-4.25,8,11.6,11.6,0,0,1-3.07,2.6c-1.35.76-2.61.73-4,1.12a3,3,0,0,0-2.3,3.31c.41,1.9,2.43,2.47,4.11,2.29a15,15,0,0,0,8.38-4,23.44,23.44,0,0,0,5.31-7.59A40.58,40.58,0,0,0,37,60.16c.65-3.64.41-7.57-2-10.53a8.73,8.73,0,0,0-8.13-3c-1.88.29-1.89,3.52,0,3.8Z" transform="translate(20.07 5.2)"/><path class="cls-10" d="M37.35,57.94c-.49-3.6-2.4-4.47-2.9-.87-.06.5-3,3.23-10,2.46a10.57,10.57,0,0,1-6.8-3.16c-1.94-2.21-5.36-6.43-.94-12.45a1.89,1.89,0,0,0,.2-1.37,3.28,3.28,0,0,1,2.4-.84c2.22.09,2.69-3.34.53-3.87a7.74,7.74,0,0,0-6.59,1.44l-.16.13a2.78,2.78,0,0,0-2.29,1.06,10.77,10.77,0,0,0-.95,1.19C7.69,44.38,2.19,45.32,1.41,49,.85,51.54-.37,53.57.17,56.16c-.63.26.9,3.68.58,4.3C-1.08,64,3,66.77,4.63,70.06a18.47,18.47,0,0,0,6.77,7.47c2.78,1.8,6.5,3.52,9.87,3.11a11.85,11.85,0,0,0,4.28-1.58c.61-.34,1.21-.68,1.84-1s1.09-.79,1.68-1a2.23,2.23,0,0,0,1.12-3.41,7.83,7.83,0,0,0,2.64-2.44,3.57,3.57,0,0,0,.1-3.46C36.09,65.39,38.49,61.86,37.35,57.94Z" transform="translate(20.07 5.2)"/><path class="cls-10" d="M38,63.4c-.69-3.59-3.34-4.46-4-.87-.1.5-4.14,3.23-13.82,2.46-3.48-.27-7.09-1.22-9.45-3.16-2.7-2.21-9.1-11.57-3-17.6.42-.41,5.08-3.6,2.41-2.15L4.32,44.87a4.64,4.64,0,0,0-3.17,1.07A11.62,11.62,0,0,0-.17,47.13C-3.24,49.85-10.88,50.78-12,54.42c-.77,2.59-2.48,4.62-1.73,7.2-.87.27,1.26,3.69.81,4.31-2.54,3.5,3.18,6.3,5.39,9.6A22.46,22.46,0,0,0,1.92,83c3.85,1.79,9,3.51,13.7,3.11a20.83,20.83,0,0,0,5.94-1.59c.84-.33,1.68-.67,2.55-1s1.51-.79,2.34-1c2.15-.65,2.72-2.3,1.56-3.41a10.5,10.5,0,0,0,3.66-2.44,2.74,2.74,0,0,0,.14-3.47C36.19,70.86,39.54,67.32,38,63.4Z" transform="translate(20.07 5.2)"/><path class="cls-10" d="M36.46,68.55c-.75-3.91-3.64-4.87-4.38-1-.11.55-4.52,3.53-15.07,2.69C13.22,70,9.28,69,6.71,66.84,3.77,64.43-3.21,54.22,3.49,47.65,3.94,47.2,9,43.72,6.1,45.3c-.08.05-6.22,3-6.3,3.05a5,5,0,0,0-3.46,1.16,12.07,12.07,0,0,0-1.44,1.3c-3.35,3-11.68,4-12.86,7.94-.84,2.83-2.69,5-1.88,7.86-.95.29,1.37,4,.88,4.7-2.77,3.82,3.47,6.87,5.87,10.46A24.57,24.57,0,0,0-2.82,89.92c4.2,2,9.83,3.83,14.93,3.39a23,23,0,0,0,6.48-1.73c.92-.37,1.84-.73,2.78-1.07s1.65-.87,2.56-1.14c2.34-.7,3-2.51,1.69-3.71a11.3,11.3,0,0,0,4-2.67,3,3,0,0,0,.16-3.78C34.54,76.68,38.19,72.83,36.46,68.55Z" transform="translate(20.07 5.2)"/></g><g class="cls-11"><path class="cls-12" d="M47,46.92a9.74,9.74,0,0,0-10.92,6.75c-1.75,5.1-.16,11,2.47,15.49a20.22,20.22,0,0,0,10.6,9.06c4.54,1.58,10.57,1.33,14-2.32,1.52-1.59,0-4.8-2.29-3.94-3.15,1.16-6.16,2-9.48,1A13.47,13.47,0,0,1,44.16,67c-1.79-2.84-3.15-6.45-2.67-9.86C41.9,54.27,44,51.34,47,50.73c1.85-.39,1.92-3.47,0-3.81Z" transform="translate(20.07 5.2)"/><path class="cls-13" d="M51.38,49a12,12,0,0,1,7.8-.42c2.53.9,4.1,3.28,5,5.71a32.88,32.88,0,0,1,1.89,9.3,13.06,13.06,0,0,1-.56,4.93c-.55,1.63-1.66,2.85-2,4.55a2.22,2.22,0,0,0,2.71,2.71c4.57-1.13,5.71-7.55,5.63-11.57a35.76,35.76,0,0,0-2.7-12.95,14.1,14.1,0,0,0-8.39-8.22,10.37,10.37,0,0,0-11.24,2.67c-1.22,1.31,0,4.08,1.92,3.29Z" transform="translate(20.07 5.2)"/><path class="cls-10" d="M71.06,53.72c-.64-1.78.3-3.41-1.65-3.11-1.75.26-2.66,1.24-4.81,3.56a35.71,35.71,0,0,1-5.36,4.44,16.5,16.5,0,0,1-6.32,1.94A11.1,11.1,0,0,1,44.72,59c-3-2-1.83-6.57-1.52-9.31.44-3.92-5.37-5-7.15-1.94a14.21,14.21,0,0,0-1.62,8,39.46,39.46,0,0,0,.87,7.43,12.88,12.88,0,0,0,2.78,5.32.13.13,0,0,1,0,.06,10.73,10.73,0,0,0,8.42,8.73,15.49,15.49,0,0,0,6.25.07A17.15,17.15,0,0,0,57,76.94c.76-.23,3.64-2.11,4.51-2.32a2.57,2.57,0,0,0,2.1-2.69c.54-.53,1.06-1.08,1.56-1.67,2.39-2.82,5-5.58,5.35-9.39a2.64,2.64,0,0,0-.2-1.34A6.67,6.67,0,0,0,71.06,53.72Z" transform="translate(20.07 5.2)"/><path class="cls-14" d="M78.64,57.49c-1-1.75.3-3.42-2.49-3-2.48.37-3.74,1.4-6.72,3.84a52.42,52.42,0,0,1-7.49,4.74,35.09,35.09,0,0,1-9.43,2.55c-4.25.61-6.58.71-10.27-.83-4.34-1.82-3.92-7-3.6-9.74.48-3.94-7.87-4.7-10.29-1.52a10.79,10.79,0,0,0-2,8,28.15,28.15,0,0,0,1.54,7.37,12.3,12.3,0,0,0,4.19,5.16s0,0,0,.06c1,4.19,6.35,7.72,12.39,8.24a31.34,31.34,0,0,0,8.93-.29,35.9,35.9,0,0,0,6-.58c1.08-.27,5.11-2.32,6.34-2.58,2.17-.47,3-1.65,2.91-2.81.75-.55,1.47-1.14,2.16-1.75,3.31-3,6.88-5.86,7.27-9.7a2,2,0,0,0-.34-1.33C79.21,61.51,79.79,59.53,78.64,57.49Z" transform="translate(20.07 5.2)"/><path class="cls-14" d="M76.92,60.79c-1.17-1.63-.08-3.44-2.81-2.73-2.43.63-3.56,1.8-6.26,4.55-1.16,1.18-4.52,5.22-6.15,6.13a35.22,35.22,0,0,1-9,3.9c-4.16,1.07-7.68.47-11.52-.67-4.51-1.32-4.3-6.48-4.27-9.25,0-4-8.35-3.82-10.4-.39a10.78,10.78,0,0,0-1.11,8.2,28.33,28.33,0,0,0,2.34,7.16,12.21,12.21,0,0,0,4.73,4.67s0,0,0,.06c1.46,4.06,7.16,7,13.22,6.84A31.1,31.1,0,0,0,54.54,88a35.15,35.15,0,0,0,5.92-1.22c1-.4,4.83-2.87,6-3.27,2.1-.7,2.82-2,2.58-3.1.69-.64,1.34-1.3,2-2,3-3.3,6.19-6.58,6.16-10.44a2,2,0,0,0-.48-1.28C77.92,64.72,78.28,62.69,76.92,60.79Z" transform="translate(20.07 5.2)"/></g><g class="cls-15"><path class="cls-16" d="M21.47,53.09c0-.58-.06.61-.06.74A10.87,10.87,0,0,0,21.36,55c0,.87.16,1.73.15,2.61a8,8,0,0,1-1,4.06c-1.68,3-5.07,3.63-7.06,6.19-1.39,1.79-1,4.2,1.31,5,6.11,2.07,12.12-5.1,13.83-10.15,1-2.88,1.21-6.58-.4-9.29-1.23-2.06-6.47-4.23-6.72-.28Z" transform="translate(20.07 5.2)"/></g><g class="cls-15"><path class="cls-16" d="M53.3,53.61c-.94-.1-.44,0,0,.27a9.09,9.09,0,0,1,.86.49,7.67,7.67,0,0,1,1.31,1.36,7.08,7.08,0,0,1,1.35,3.07c.49,2.88-1.57,5.58-.35,8.46a2.19,2.19,0,0,0,2,1.13c5.77-.67,5.85-9.16,4.11-13.21A9,9,0,0,0,57.38,50c-2-.64-4.71-.4-5.39,1.88a1.38,1.38,0,0,0,1.31,1.72Z" transform="translate(20.07 5.2)"/></g><path class="cls-17" d="M60.17,47.27a6.67,6.67,0,0,0-6.83.17,5.07,5.07,0,0,0-2,2.41,5.13,5.13,0,0,0-1.46,3.39c-.2,5,5.7,7,9.64,5C63.69,56.1,64.44,49.83,60.17,47.27Z" transform="translate(20.07 5.2)"/><path class="cls-18" d="M31.38,54.28a8.37,8.37,0,0,0-7.65-4.35c-3,.12-6.82,1.63-7.85,4.7A5.52,5.52,0,0,0,16,58.5a5.39,5.39,0,0,0,2.56,4.15c2.5,1.58,6,1.41,8.67.4C30.7,61.73,33.19,57.93,31.38,54.28Z" transform="translate(20.07 5.2)"/><path class="cls-16" d="M55.94,50.79a21,21,0,0,0,2.62,1.75,6.31,6.31,0,0,1,2,2.52c.38.77,1.1,3,2.22,1.63s.07-3.83-1-5c-1.28-1.51-3.51-2.89-5.53-2.3a.86.86,0,0,0-.38,1.43Z" transform="translate(20.07 5.2)"/><path class="cls-16" d="M28,54.3A5.87,5.87,0,0,1,27.81,56c-.12.63-.33,1.22-.4,1.85a1.64,1.64,0,0,0,1.2,1.58,1.71,1.71,0,0,0,1.85-.75,3.56,3.56,0,0,0-1.53-5,.62.62,0,0,0-.89.69Z" transform="translate(20.07 5.2)"/><path class="cls-16" d="M26.75,52.13a1,1,0,0,0,0-2.05,1,1,0,0,0,0,2.05Z" transform="translate(20.07 5.2)"/><g class="cls-19"><path class="cls-20" d="M50.72,2A36,36,0,0,0,41,1c-1.89-6.15-9.37-2.18-13-.2A56.08,56.08,0,0,0,1.81,31.83a3.41,3.41,0,0,0,.73,3.26,36.72,36.72,0,0,1-5.39,3.43,1.58,1.58,0,0,0,.79,2.92c11.41.14,16.69-12.07,23.41-19.3,3.65-3.92,8-6.3,12.79-8.69C39,11,44.15,8.72,49.76,9.08,53.86,9.35,54.67,2.91,50.72,2Z" transform="translate(20.07 5.2)"/></g><path class="cls-21" d="M50.41,6A28.53,28.53,0,0,1,55.89.2a.83.83,0,0,1,.46-.2.81.81,0,0,1,.48.21,8.15,8.15,0,0,1,1.93,2C58.6,2,54.18,5.89,53.81,6.27c-.56.57-1.33,1.85-2.25,1.75S49.79,6.75,50.41,6Z" transform="translate(20.07 5.2)"/><path class="cls-22" d="M51.32,6.87A28.53,28.53,0,0,1,56.8,1.11a.83.83,0,0,1,.46-.2.81.81,0,0,1,.48.21,8.38,8.38,0,0,1,1.94,2c-.17-.24-4.59,3.68-5,4.06-.56.57-1.33,1.85-2.25,1.75S50.7,7.66,51.32,6.87Z" transform="translate(20.07 5.2)"/><path class="cls-23" d="M53.87,4.75a16.46,16.46,0,0,1,3.31-2.56.35.35,0,0,1,.23-.06.31.31,0,0,1,.14.19,4.49,4.49,0,0,1,.36,1.42,19.59,19.59,0,0,0-2.77,1.65c-.33.25-.89.88-1.23.7A.93.93,0,0,1,53.87,4.75Z" transform="translate(20.07 5.2)"/><g class="cls-19"><path class="cls-24" d="M-2.37,40.75c3.77,2,7.75-1.53,9.94-4.35,2.9-3.72,3.62-7.8,4.26-12.36a33.4,33.4,0,0,1,3.85-12.22A24.85,24.85,0,0,1,24.4,3.19c1.65-1,3.39-1.88,5.13-2.74S33.46-1.17,34.33-3c.62-1.32-.48-1.93-1.64-2.13-2.33-.4-4.6.71-6.69,1.62A31.06,31.06,0,0,0,8.87,14.34C7.14,19.1,7.09,24.06,5.92,28.92A16.87,16.87,0,0,1-2.37,39.25a.87.87,0,0,0,0,1.5Z" transform="translate(20.07 5.2)"/><path class="cls-25" d="M1.93,42.6c1.08,1.68,10.27.81,12,.66a35,35,0,0,0,8-1.67,49.44,49.44,0,0,0,14-7.22c4.61-3.46,8.26-7.73,11.81-12.23a32.37,32.37,0,0,0,4.88-7.65c.47-1.13.91-2.27,1.34-3.41a14.5,14.5,0,0,0,.66-1.92c.16-.61.15-1.3.35-1.9.41-1.16-1-1.92-1.91-1.47a8.28,8.28,0,0,0-3.18,2.12,19.48,19.48,0,0,0-2.14,3.38A46.9,46.9,0,0,1,43.57,18c-3.36,4.29-6.82,8.58-11.26,11.8a70.4,70.4,0,0,1-15.14,8C16,38.19.62,41.23,1.71,42.93Z" transform="translate(20.07 5.2)"/></g><g class="cls-26"><path class="cls-25" d="M8.31,37.47c3.72-2,5.2-5.93,8-9s5-6,8.12-9.06,9.06-5.74,12.31-7.29a36.62,36.62,0,0,1,4.86-1.76A34.41,34.41,0,0,1,49,9.09a9.52,9.52,0,0,0,1.43-1.83c-1.25-.06-3.71-.4-4.95-.54a14,14,0,0,0-3.59.2,54.37,54.37,0,0,0-6.82,1.32,27.64,27.64,0,0,0-11.71,6.37,48.89,48.89,0,0,0-8.29,10.27c-1.2,1.92-2,4.12-3,6.13a36.87,36.87,0,0,1-3.9,6.24.14.14,0,0,0,.17.22Z" transform="translate(20.07 5.2)"/></g><path class="cls-25" d="M9.48,36.57C13,34.85,15,31.09,17.33,28.06A48.55,48.55,0,0,1,41.72,11c.93-.29,1.86-.54,2.79-.76s2-.75,3-1c.17,0,.14-.34,0-.32a24.91,24.91,0,0,0-2.71.21c-.93.22-1.86.5-2.78.78A51.26,51.26,0,0,0,26.4,17.7a44.29,44.29,0,0,0-8.2,7.87c-1.33,1.65-2.54,3.4-3.79,5.12-1.43,2-2.93,4.4-5,5.82a0,0,0,0,0,0,.06Z" transform="translate(20.07 5.2)"/></g></g></g></g></svg>