<svg xmlns="http://www.w3.org/2000/svg" xmlns:xlink="http://www.w3.org/1999/xlink" viewBox="0 0 67.14 74.92"><defs><style>.cls-1{fill:#f8d700;}.cls-2{fill:none;}.cls-3{clip-path:url(#clip-path);}.cls-4{fill:#fff93f;}.cls-5{fill:#f8b200;}.cls-11,.cls-6,.cls-8{fill:#fcb300;}.cls-6{opacity:0.29;}.cls-7{clip-path:url(#clip-path-2);}.cls-8{opacity:0.48;}.cls-9{opacity:0.64;}.cls-10{fill:#f7bc00;}.cls-11{opacity:0.42;}</style><clipPath id="clip-path" transform="translate(5.73 7.53)"><path class="cls-1" d="M1.24,23.33c.7-3,4.87-10.39,7.18-12.46,2.93-2.63,6.42-4.62,8.89-7.68A14.81,14.81,0,0,1,19.19.91a4.15,4.15,0,0,1,4.38-.5c1.67.83,2.55,2.66,3.94,3.89,1.84,1.62,4.38,2.08,6.7,2.88a21.68,21.68,0,0,1,5.67,2.94,26.38,26.38,0,0,1,3.63,3.21A32.38,32.38,0,0,1,52.1,32.14a33.17,33.17,0,0,1-4.49,20.2,19.43,19.43,0,0,1-4.12,5.07c-3.7,3.07-9.22,6.81-18,5.12-4.73-.91-12-3.1-15.53-6.37C.69,47.52-1.82,36.47,1.24,23.33Z"/></clipPath><clipPath id="clip-path-2" transform="translate(5.73 7.53)"><path class="cls-2" d="M1.24,23.33c.7-3,4.87-10.39,7.18-12.46,2.93-2.63,6.42-4.62,8.89-7.68A14.81,14.81,0,0,1,19.19.91a4.15,4.15,0,0,1,4.38-.5c1.67.83,2.55,2.66,3.94,3.89,1.84,1.62,4.38,2.08,6.7,2.88a21.68,21.68,0,0,1,5.67,2.94,26.38,26.38,0,0,1,3.63,3.21A32.38,32.38,0,0,1,52.1,32.14a33.17,33.17,0,0,1-4.49,20.2,19.43,19.43,0,0,1-4.12,5.07c-3.7,3.07-9.22,6.81-18,5.12-4.73-.91-12-3.1-15.53-6.37C.69,47.52-1.82,36.47,1.24,23.33Z"/></clipPath></defs><g id="Capa_2" data-name="Capa 2"><g id="Layer_1" data-name="Layer 1"><g id="Layer_23" data-name="Layer 23"><path class="cls-1" d="M1.24,23.33c.7-3,4.87-10.39,7.18-12.46,2.93-2.63,6.42-4.62,8.89-7.68A14.81,14.81,0,0,1,19.19.91a4.15,4.15,0,0,1,4.38-.5c1.67.83,2.55,2.66,3.94,3.89,1.84,1.62,4.38,2.08,6.7,2.88a21.68,21.68,0,0,1,5.67,2.94,26.38,26.38,0,0,1,3.63,3.21A32.38,32.38,0,0,1,52.1,32.14a33.17,33.17,0,0,1-4.49,20.2,19.43,19.43,0,0,1-4.12,5.07c-3.7,3.07-9.22,6.81-18,5.12-4.73-.91-12-3.1-15.53-6.37C.69,47.52-1.82,36.47,1.24,23.33Z" transform="translate(5.73 7.53)"/><g class="cls-3"><path class="cls-4" d="M26.47-1.6a1.21,1.21,0,0,0-1.56-.88c-1.48.38-1.23,2.21-.68,3.25,1.49,2.86,4.6,5,7.2,6.75a35,35,0,0,1,7.17,6,29.36,29.36,0,0,1,4.66,7.82C46,27.69,46,34.84,44.84,41.53c-.54,3-1.22,6.58-3.18,9A33.92,33.92,0,0,1,34.5,57.2c-3,2-6.6,2.46-10.14,2.36-2.2-.06-4.41-.26-6.6-.52-2.42-.28-5-.57-7.26.48A2.9,2.9,0,0,0,9.62,64c3,3,8,3,12,3.26a32.23,32.23,0,0,0,11.16-.79,24.68,24.68,0,0,0,9.76-5.75c2.83-2.58,5.73-5.25,7.39-8.76a40.81,40.81,0,0,0,2.92-11.09,46.42,46.42,0,0,0,.23-12.18,34.38,34.38,0,0,0-8-18.8,29.53,29.53,0,0,0-8.77-6.72C34.5,2.25,32.72,1.31,30.9.51,30.15.18,29.45-.2,28.74-.6,28.37-.81,28-1,27.62-1.23s-.44-.26-.65-.4q-.64-.58-.57.33l-.64.56.18-.06a.69.69,0,0,0,.53-.8Z" transform="translate(5.73 7.53)"/><path class="cls-5" d="M13.84,1.08C11.93,5,7.2,7,4.37,10.11a33.11,33.11,0,0,0-7.29,13A35.44,35.44,0,0,0,.86,50.88C3.46,55.21,7.68,61.5,13.44,61a2.41,2.41,0,0,0,1.85-2.82c-.73-4.07-5-7-7.15-10.39A29.91,29.91,0,0,1,3.86,36.54c-1.32-8.36,1.62-16.78,6.86-23.26,2.88-3.56,6.86-7.36,5-12.32-.35-.95-1.58-.58-1.92.12Z" transform="translate(5.73 7.53)"/><path class="cls-6" d="M58.09,35.42c0-.41,0-9,0-9.43S49.92,19,47.4,21.2c-3.7,3.27-8.06,6.09-13.08,6.59-3.67.37-8.17-1-10.47-4.31-1.24-1.8-1.76-4.51-2.11-6.83A53.32,53.32,0,0,1,21,9.52C21,4.72,22-.18,24.78-4.14c1.46-2-1.38-4.46-3.25-2.87a20.1,20.1,0,0,0-4.27,5.13c-2-1.55-5.69-1.35-6.35,1.59-.23,1-.43,2.05-.58,3.09a3.53,3.53,0,0,0-1-.49c-1.85-.65-4.45.35-5,2.4-.26,1-.46,2-.62,3.07a61.46,61.46,0,0,0-1,8.56A3.8,3.8,0,0,0-.67,19.92c0,6.7-3.63,12.28-1.07,18.56-.84.71,2.83,3.41,2.68,4.48C.05,49.31,4.82,54.91,9.82,58.14a26.79,26.79,0,0,0,8.1,3.56,16,16,0,0,0,4.66.59c1.63-.08,11.22,1.52,11.51,1.36,7.76-.77,9.52-6.36,15.18-11.77,1.4-1.34,4.09-2.28,2.95-3.91-.18-.27,4.22-.64,4-.84,1.89-1.15-3.54-3.78-3-6.09S60.47,35.68,58.09,35.42Z" transform="translate(5.73 7.53)"/></g><g class="cls-7"><path class="cls-8" d="M25,4.87a5.74,5.74,0,0,0-.25-3.7c-.38-1.11-.9-2.67-1.93-3.33A1.44,1.44,0,0,0,21.15-2C18.84,0,22,4.5,24.2,5.28A.67.67,0,0,0,25,4.87Z" transform="translate(5.73 7.53)"/><path class="cls-1" d="M20.34,4.26c.81-1.17,2-2.58,1.69-4.12a1.17,1.17,0,0,0-1.9-.64C18.94.5,19,2.36,18.91,3.77a.79.79,0,0,0,1.43.49Z" transform="translate(5.73 7.53)"/><g class="cls-9"><path class="cls-10" d="M31.24,3.83a4.16,4.16,0,0,0-1.48-2,24.85,24.85,0,0,1-1.94-2.3c-1.5-1.81-3.24-1.83-5.34-2.28a2.35,2.35,0,0,0-2.9,1.4A2.3,2.3,0,0,0,21,1.59a28.75,28.75,0,0,1,2.95.46c.86.3,1.33,1.18,2,1.75,1.35,1.13,3.38,2.09,5,1a.94.94,0,0,0,.32-.94Z" transform="translate(5.73 7.53)"/></g><path class="cls-6" d="M61.33,43.63a3.76,3.76,0,0,0-3.23-2.92,15.64,15.64,0,0,0,.63-1.44,3.67,3.67,0,0,0-.31-3.08,7.35,7.35,0,0,0,.32-1.74c.22-3.27-3.42-4.52-5.79-2.86a31.27,31.27,0,0,1-29.46,3.06,35.22,35.22,0,0,1-13.3-9.58C6.63,20.9,4.48,15,5.66,9.47c.23-1.07-1.28-2.14-1.91-1A18.13,18.13,0,0,0,2.69,11a3.11,3.11,0,0,0-4.27,2.09,19.66,19.66,0,0,0,0,9.67,3.68,3.68,0,0,0-3,3.36v0a3.19,3.19,0,0,0-1.1,2.33,37,37,0,0,0,.58,6.49c0,.35-.08.7-.1,1A15.56,15.56,0,0,0-3.6,43.89a20.1,20.1,0,0,0,5.18,6.29,32.39,32.39,0,0,0,3,3.25c.41.39.83.78,1.27,1.15,3.06,4.15,8.12,6.56,13,8.34a25.7,25.7,0,0,0,11,1.65c2.82-.24,5.51-1.6,8.3-2a15.45,15.45,0,0,0,2.52-.16,3.2,3.2,0,0,0,2.55-1.92c.93-.56,1.83-1.16,2.71-1.79a29.27,29.27,0,0,0,9.28-4.59A3.77,3.77,0,0,0,56,49.69a3.5,3.5,0,0,0-.64-.89l1-.29c.69-.17,1.37-.33,2.06-.52A3.78,3.78,0,0,0,61.33,43.63Z" transform="translate(5.73 7.53)"/></g><g class="cls-7"><path class="cls-11" d="M52.92,39.13A73.7,73.7,0,0,1,37.07,45c-5.09,1-9.47,1-14.68.84C18,45.71,11.67,44.42,7.77,42.2A25.51,25.51,0,0,1-1.09,34c-.46-.69-1.93-.73-1.86.37a14.79,14.79,0,0,0,3,8,2.61,2.61,0,0,0-.16.42A6.84,6.84,0,0,0,1,49.11,4,4,0,0,0,.94,50.5c.42,3.67,4.54,6,7.32,7.81,3.17,2.12,6.48,4.14,10.26,4.9a26.75,26.75,0,0,0,4.18.47c5.84,1.52,12.45.21,18.2-1.42A4.13,4.13,0,0,0,44,58.86a19.76,19.76,0,0,0,7.86-6,3.33,3.33,0,0,0,.54-3.24,12.67,12.67,0,0,0,3.29-7.26C56,39.61,55.26,38,52.92,39.13Z" transform="translate(5.73 7.53)"/></g></g></g></g></svg>