<svg xmlns="http://www.w3.org/2000/svg" xmlns:xlink="http://www.w3.org/1999/xlink" viewBox="0 0 101.93 107.59"><defs><style>.cls-1,.cls-10,.cls-11{fill:#eb7013;}.cls-2{fill:none;}.cls-3{isolation:isolate;}.cls-4{fill:#676a23;}.cls-5{clip-path:url(#clip-path);}.cls-12,.cls-13,.cls-6{mix-blend-mode:screen;}.cls-11,.cls-6{opacity:0.14;}.cls-7{fill:#fab93b;}.cls-10,.cls-11,.cls-8{mix-blend-mode:multiply;}.cls-8{opacity:0.2;}.cls-9{clip-path:url(#clip-path-2);}.cls-10{opacity:0.25;}.cls-12,.cls-14{fill:#fff;}.cls-12,.cls-13{opacity:0.11;}</style><clipPath id="clip-path" transform="translate(16.66 6.46)"><path class="cls-1" d="M11,59c7.41,8.32,19.64,10.86,30.69,9.45a28.4,28.4,0,0,0,12.23-4,37.69,37.69,0,0,0,6.31-5.67C63,55.9,65.8,53,67.5,49.33A26.15,26.15,0,0,0,69.67,39,40.37,40.37,0,0,0,61,12.27C54.9,4.87,45.61,0,36,0,24.29,0,13.26,7,6.58,16.7,2.23,23-.55,30.66.09,38.31A31.43,31.43,0,0,0,6.32,54.08C8,56.42,9.05,56.87,11,59Z"/></clipPath><clipPath id="clip-path-2" transform="translate(16.66 6.46)"><path class="cls-2" d="M11,59c7.41,8.32,19.64,10.86,30.69,9.45a28.4,28.4,0,0,0,12.23-4,37.69,37.69,0,0,0,6.31-5.67C63,55.9,65.8,53,67.5,49.33A26.15,26.15,0,0,0,69.67,39,40.37,40.37,0,0,0,61,12.27C54.9,4.87,45.61,0,36,0,24.29,0,13.26,7,6.58,16.7,2.23,23-.55,30.66.09,38.31A31.43,31.43,0,0,0,6.32,54.08C8,56.42,9.05,56.87,11,59Z"/></clipPath></defs><g class="cls-3"><g id="Capa_2" data-name="Capa 2"><g id="Layer_1" data-name="Layer 1"><g id="Layer_12" data-name="Layer 12"><path class="cls-4" d="M18.13,16.62a16.92,16.92,0,0,0-3.85-4.5c-1.31-1-3.18-2.71-5-2.23a.57.57,0,0,0-.33.82c.65,1.42,2.59,2,3.84,2.82A50,50,0,0,1,17.65,17c.25.21.68-.06.48-.38Z" transform="translate(16.66 6.46)"/><path class="cls-1" d="M11,59c7.41,8.32,19.64,10.86,30.69,9.45a28.4,28.4,0,0,0,12.23-4,37.69,37.69,0,0,0,6.31-5.67C63,55.9,65.8,53,67.5,49.33A26.15,26.15,0,0,0,69.67,39,40.37,40.37,0,0,0,61,12.27C54.9,4.87,45.61,0,36,0,24.29,0,13.26,7,6.58,16.7,2.23,23-.55,30.66.09,38.31A31.43,31.43,0,0,0,6.32,54.08C8,56.42,9.05,56.87,11,59Z" transform="translate(16.66 6.46)"/><g class="cls-5"><g class="cls-6"><path class="cls-7" d="M22.82,1.68c1.1.74,2.63.8,3.9,1.09,1.7.39,3.38.41,5.07.92a51,51,0,0,1,8.89,4,46.49,46.49,0,0,1,4.43,2.72c.27.18,1,.88,0,0l.7.58a27,27,0,0,1,1.94,1.92c1,1.05,1.86,2.18,2.81,3.25s-.18-.1-.18-.27a7.32,7.32,0,0,0,.72,1c.47.66.92,1.34,1.34,2,.8,1.31,1.46,2.68,2.14,4.06.54,1.11-.61-1.64-.21-.48.1.29.22.57.32.85.31.86.62,1.73.89,2.6.21.68.39,1.37.56,2.07a13.29,13.29,0,0,0,.51,2.57s-.2-2-.12-.89c0,.44.09.88.12,1.32q.1,1.5.09,3c0,.77-.05,1.55-.11,2.33,0,.33-.06.67-.08,1-.17,2,0-.66.09-.65s-1,4.76-1.12,5.21c-.2.75-.41,1.5-.66,2.24-.13.42-.28.84-.43,1.25s-.69,1.73-.12.36.09-.22,0,0c-.45,1-.84,2-1.25,3,.1-.24,1-2.05.18-.53-.2.4-.39.8-.6,1.2a82.37,82.37,0,0,1-6.08,10c-.49.68,0-.07.13-.17-.58.75-1.19,1.48-1.72,2.27s-1,1.64-1.59,2.44c-1.07,1.59-2,3.25-2.92,4.92a3.78,3.78,0,0,0,4.22,5.49,37.35,37.35,0,0,0,12-4.32c3.68-2.22,7.47-4.57,10.23-7.94a41.07,41.07,0,0,0,7.59-13.65,39.38,39.38,0,0,0,1.79-13.17,42.44,42.44,0,0,0-8-24.27A43,43,0,0,0,47.66-4.12,38.43,38.43,0,0,0,32.82-6.41c-2.36.13-5.32.34-7.37,1.66C23.78-3.67,22-2,21.88,0a1.9,1.9,0,0,0,.94,1.65Z" transform="translate(16.66 6.46)"/></g><g class="cls-8"><path class="cls-1" d="M22.34-1.17c-2.63-3-7.62-.13-10.27,1.45A34.43,34.43,0,0,0,4.27,7,44.31,44.31,0,0,0-5.93,27.21C-9.21,43.87-.39,61.52,12.7,71.63A35.69,35.69,0,0,0,25.34,78a23.61,23.61,0,0,0,7.23.86,9.49,9.49,0,0,0,4.31-1,8.33,8.33,0,0,0,1.51-1.12l.28-.29q1.39-1.74.24-.39a3.21,3.21,0,0,0,.64-5l.18.34c.35.72.25.45-.31-.8-.11-.21-.18-.41-.31-.61a9.33,9.33,0,0,0-2.72-2.77c-1.3-.88-2.65-1.67-4-2.5s-2.48-1.65-3.7-2.52c-1-.7.92.86.05,0-.25-.23-.52-.43-.78-.66-.68-.6-1.34-1.22-2-1.83a65.4,65.4,0,0,1-6.52-7.1c-.58-.7-1.34-1.42-.26-.27a16.25,16.25,0,0,1-1.41-2q-1.38-2-2.58-4.09c-.82-1.43-1.57-2.89-2.33-4.35-.33-.62-.61-1.27-.94-1.89-.6-1.15.5,1.42.08.19-.15-.45-.33-.88-.49-1.33a35.76,35.76,0,0,1-1.26-4.78,3.72,3.72,0,0,1-.18-1s.14,1.54.07.5c0-.73-.15-1.45-.24-2.18-.17-1.24-.2-1.48-.09-.7.07.52.07.54,0,0,0-1.53-.2-3-.14-4.58,0-.81.11-1.62.17-2.43s0,0,0,.16c.1-.58.2-1.16.32-1.74a25.63,25.63,0,0,1,1.25-4c-.39,1,.36-.77.49-1,.36-.74.75-1.47,1.17-2.18a33.52,33.52,0,0,1,5.4-6.85c2.25-2.36,7-5.68,3.88-9.24Z" transform="translate(16.66 6.46)"/></g></g><g class="cls-9"><path class="cls-10" d="M75.83,33.9A12.24,12.24,0,0,0,75,32c-.28-.56-.2-1-.22-.3a6.61,6.61,0,0,0-1-2.72,4.48,4.48,0,0,0-1.77-3.75,4.67,4.67,0,0,0-6,.36,114.75,114.75,0,0,1-9.45,7c-2.79,1.84-5.71,3.88-9,4.8-6.09,1.73-13.22.81-19.07-1.42A24.58,24.58,0,0,1,15.2,24.32a26.67,26.67,0,0,1-1.54-3.76,40.61,40.61,0,0,0-.92-5.23c-.08-.33-.17-.65-.26-1a16.12,16.12,0,0,1,.09-2.87c.07-.51.53-3.91.81-4,2.29-.64,1.94-4.46-.58-4.28A4.94,4.94,0,0,0,9.11,5.56,4.61,4.61,0,0,0,3.7,8.74a6.45,6.45,0,0,0-.27.85A46.46,46.46,0,0,0,2,15.54,4.81,4.81,0,0,0-2.89,19,46.07,46.07,0,0,0-2,45.61,46.9,46.9,0,0,0,4.35,58.17a4.52,4.52,0,0,0,1.14,2.57c4.42,4.94,9,11.1,15.79,12.65,6.3,1.44,13.56.44,19.8-.93,12.21-2.67,23.67-9.73,29.67-21A36.62,36.62,0,0,0,74.48,41a11.89,11.89,0,0,0,1.38-2.91A7.61,7.61,0,0,0,75.83,33.9Z" transform="translate(16.66 6.46)"/><path class="cls-11" d="M80.38,48.44a11.85,11.85,0,0,0-1-2c-.34-.6-.24-1.06-.27-.32A6.39,6.39,0,0,0,78,43.26a4.48,4.48,0,0,0-2.14-3.95,6.29,6.29,0,0,0-7.28.37A133,133,0,0,1,57.12,47c-3.37,1.94-6.9,4.09-10.83,5.06-7.37,1.83-16,.85-23.06-1.49-6.87-2.27-12.8-6.5-16.15-12.23a25.65,25.65,0,0,1-1.87-4A37.34,37.34,0,0,0,4.1,28.88c-.1-.35-.21-.69-.31-1a15.19,15.19,0,0,1,.1-3c.08-.54.65-4.12,1-4.21a2.28,2.28,0,0,0-.7-4.51A6,6,0,0,0-.29,18.58a5.7,5.7,0,0,0-6.55,3.35,7.28,7.28,0,0,0-.32.89,46,46,0,0,0-1.75,6.27,5.81,5.81,0,0,0-5.89,3.67,42.61,42.61,0,0,0,1.11,28A47.55,47.55,0,0,0-6,74a4.45,4.45,0,0,0,1.37,2.71c5.34,5.2,10.85,11.7,19.09,13.33,7.63,1.52,16.41.46,23.95-1C53.13,86.28,67,78.84,74.25,67a35.43,35.43,0,0,0,4.5-11.07,11.55,11.55,0,0,0,1.67-3.07A6.93,6.93,0,0,0,80.38,48.44Z" transform="translate(16.66 6.46)"/><path class="cls-11" d="M84.59,52.13a11.94,11.94,0,0,0-1.21-1.87c-.4-.55-.35-1-.3-.29a6.47,6.47,0,0,0-1.48-2.71A4.52,4.52,0,0,0,79,43.58a6.27,6.27,0,0,0-7.19,1.2,134.47,134.47,0,0,1-10.51,8.58c-3.14,2.31-6.39,4.85-10.19,6.27C44,62.29,35.35,62.3,28.05,60.78,21,59.3,11.94,54.86,8,49.54,7.09,48.39-4.43,29-4.89,31.4c-1.82,9.34-7,35.3-2.56,43.74a47.51,47.51,0,0,0,9.1,12.28A4.49,4.49,0,0,0,3.33,90C9.22,94.51,15.44,100.34,23.81,101c7.75.63,16.36-1.42,23.68-3.71,14.35-4.48,27.27-13.46,33.12-26a35.23,35.23,0,0,0,3.21-11.51,11.49,11.49,0,0,0,1.31-3.25A7,7,0,0,0,84.59,52.13Z" transform="translate(16.66 6.46)"/></g><path class="cls-12" d="M65.46,36.11c-.53-12.17-6.3-24.66-17.65-30.25a26.12,26.12,0,0,0-6.56-2.24,9.1,9.1,0,0,0-4.12-.41,7.2,7.2,0,0,0-2.88,1A7.15,7.15,0,0,0,30.62,8.7c-1.06,3.28.13,6.63,2.23,9.18a25.69,25.69,0,0,0,3.11,3c1.67,2.64,3.23,5.36,4.65,8.14A13.75,13.75,0,0,1,42,36.64c-.18,3.23-.48,6.61.61,9.74a11.17,11.17,0,0,0,16.1,6.32C64.88,49.51,65.74,42.32,65.46,36.11Z" transform="translate(16.66 6.46)"/><g class="cls-13"><path class="cls-14" d="M49.11,19.34l.16-.14a2.16,2.16,0,0,0,.61-.94,2.21,2.21,0,0,0,.25-1.13,2.87,2.87,0,0,0-.86-2.08l-.16-.14-.64-.49-.75-.32a2.31,2.31,0,0,0-1.25,0,1.58,1.58,0,0,0-.79.21,1.72,1.72,0,0,0-.69.4,1.61,1.61,0,0,0-.56.57,1.42,1.42,0,0,0-.4.69,2.27,2.27,0,0,0-.27,1.21c0,.27.07.55.11.83l.31.75.49.63.64.49.75.32a2.31,2.31,0,0,0,1.25.05A1.58,1.58,0,0,0,48.1,20a2.38,2.38,0,0,0,1-.65Z" transform="translate(16.66 6.46)"/></g><g class="cls-13"><path class="cls-14" d="M53,24.89a3.15,3.15,0,0,0,2.17-.9,2.39,2.39,0,0,0,.64-1,2.31,2.31,0,0,0,.26-1.19,3,3,0,0,0-.9-2.17,3.08,3.08,0,0,0-4.35,0,2.39,2.39,0,0,0-.64,1,2.3,2.3,0,0,0-.26,1.18,3.1,3.1,0,0,0,.9,2.18,3.2,3.2,0,0,0,2.18.9Z" transform="translate(16.66 6.46)"/></g><g class="cls-13"><path class="cls-14" d="M51,18.75a3.55,3.55,0,0,0,.47.08,1.76,1.76,0,0,0,.94,0l.1,0-.62.08H52a2.25,2.25,0,0,0,2.13-2.81,3.36,3.36,0,0,0-.71-1.21A2.51,2.51,0,0,0,51,14.26a2.43,2.43,0,0,0-1.21.83,2.16,2.16,0,0,0-.5,1.42,2.65,2.65,0,0,0,.31,1.17,1.84,1.84,0,0,0,.61.66,1.71,1.71,0,0,0,.79.41Z" transform="translate(16.66 6.46)"/></g><g class="cls-13"><path class="cls-14" d="M45.63,22.35a2.77,2.77,0,0,0-.35,1.26,2.15,2.15,0,0,0,.63,1.51,2.23,2.23,0,0,0,2.6.34,2.28,2.28,0,0,0,1-1.28v-.05l-.21.52a.2.2,0,0,1,0-.08L49,25l0,0a2.38,2.38,0,0,0,.63-1.53,2.15,2.15,0,0,0-2.44-2.12,2.09,2.09,0,0,0-1.58,1Z" transform="translate(16.66 6.46)"/></g><g class="cls-13"><path class="cls-14" d="M49.9,27.15A3.4,3.4,0,0,0,50,28.94a3.25,3.25,0,0,0,.36.78,2.25,2.25,0,0,0,1.29,1,5.11,5.11,0,0,0,.66.07l-.54-.07h.05a2,2,0,0,0,2-.51,2.1,2.1,0,0,0,.52-2l0-.06c0,.18,0,.37.08.55v0l-.07.56a2.38,2.38,0,0,0-.3-1.89l.21.52a1.92,1.92,0,0,1-.09-.32c0,.19.06.38.08.57a2.43,2.43,0,0,1,0-.27l-.07.58a.31.31,0,0,1,0-.13,2.34,2.34,0,0,0-.22-1.68,2.26,2.26,0,0,0-1.31-1,2.18,2.18,0,0,0-2.68,1.52Z" transform="translate(16.66 6.46)"/></g><g class="cls-13"><path class="cls-14" d="M57.43,31l0,0a2,2,0,0,0,2.1,0l0,0a2.34,2.34,0,0,0,.88-1,2.17,2.17,0,0,0,.1-1.4,2.15,2.15,0,0,0-.76-1.11,2,2,0,0,0-1.3-.46,2.19,2.19,0,0,0-2,1.32,2.14,2.14,0,0,0-.1,1.39l.21.51a2.11,2.11,0,0,0,.77.77Z" transform="translate(16.66 6.46)"/></g><g class="cls-13"><path class="cls-14" d="M56.68,24.63c3.09,0,3.1-4.82,0-4.82s-3.11,4.82,0,4.82Z" transform="translate(16.66 6.46)"/></g><g class="cls-13"><path class="cls-14" d="M51.2,20.82a3.42,3.42,0,0,0-.75.86,2.12,2.12,0,0,0-.23,1.26,1.83,1.83,0,0,0,.54,1.14,2.51,2.51,0,0,0,.88.51,2.06,2.06,0,0,0,1.52-.2,3.25,3.25,0,0,0,.85-.76,2.08,2.08,0,0,0,.58-1.4,2,2,0,0,0-2-2,2.1,2.1,0,0,0-1.4.58Z" transform="translate(16.66 6.46)"/></g><g class="cls-13"><path class="cls-14" d="M46.79,21.53l.2,0a1.85,1.85,0,0,0,1.3-1.31,1.91,1.91,0,0,0-.48-1.82l-.14-.16A2,2,0,0,0,44.86,21a1.93,1.93,0,0,0,.87.51,1.91,1.91,0,0,0,1.06,0Z" transform="translate(16.66 6.46)"/></g><g class="cls-13"><path class="cls-14" d="M47.09,18.67c2.78,0,2.79-4.32,0-4.32s-2.78,4.32,0,4.32Z" transform="translate(16.66 6.46)"/></g><g class="cls-13"><path class="cls-14" d="M48.11,14.87a1.42,1.42,0,0,0,0-2.83,1.42,1.42,0,0,0,0,2.83Z" transform="translate(16.66 6.46)"/></g><g class="cls-13"><path class="cls-14" d="M50.75,13.52l.22.07a1.49,1.49,0,0,0,1.76-.86,1.44,1.44,0,0,0,.08-1,1.74,1.74,0,0,0-.69-.89l-.19-.13a1.5,1.5,0,0,0-2.17.73,1.54,1.54,0,0,0,1,2.06Z" transform="translate(16.66 6.46)"/></g><g class="cls-13"><path class="cls-14" d="M56.06,18.83a1.31,1.31,0,0,0,1.3-1.3,1.3,1.3,0,1,0-1.3,1.3Z" transform="translate(16.66 6.46)"/></g><g class="cls-13"><path class="cls-14" d="M51.38,21a1.89,1.89,0,0,0,1.29-.54,1.87,1.87,0,0,0,.54-1.3,1.84,1.84,0,0,0-.54-1.29,1.9,1.9,0,0,0-1.29-.54,1.83,1.83,0,0,0-1.3,3.13,1.91,1.91,0,0,0,1.3.54Z" transform="translate(16.66 6.46)"/></g><g class="cls-13"><path class="cls-14" d="M48.67,25.43c.16-.21.33-.41.5-.61a1.1,1.1,0,0,0,.29-.71,1,1,0,0,0-1.7-.7l-.61.5a1.07,1.07,0,1,0,1.52,1.52Z" transform="translate(16.66 6.46)"/></g><g class="cls-13"><path class="cls-14" d="M43,26.1a1.43,1.43,0,1,0-1.44-1.43A1.45,1.45,0,0,0,43,26.1Z" transform="translate(16.66 6.46)"/></g><g class="cls-13"><path class="cls-14" d="M40.16,14.58l-.13,0a2,2,0,0,0-1.36.56,2,2,0,0,0-.56,1.35,1.92,1.92,0,0,0,.56,1.36l.39.3a1.93,1.93,0,0,0,1,.26h.13a2,2,0,0,0,1.37-.56,2,2,0,0,0,.56-1.37,1.92,1.92,0,0,0-.56-1.36,1.89,1.89,0,0,0-1.37-.57Z" transform="translate(16.66 6.46)"/></g><g class="cls-13"><path class="cls-14" d="M37.2,12.74,37,12.62a.5.5,0,0,0-.68.68l.12.25a.59.59,0,1,0,.81-.81Z" transform="translate(16.66 6.46)"/></g><g class="cls-13"><path class="cls-14" d="M50,30.49a1.95,1.95,0,0,0,1.95-1.95A2,2,0,0,0,50,26.59a2,2,0,0,0-1.38.57A2,2,0,0,0,50,30.49Z" transform="translate(16.66 6.46)"/></g><g class="cls-13"><path class="cls-14" d="M54.27,29.12l.19-.37a.64.64,0,0,0-.87-.87l-.37.19a.77.77,0,1,0,1.05,1.05Z" transform="translate(16.66 6.46)"/></g><g class="cls-13"><path class="cls-14" d="M54.59,27.37l.26.17-.34-.27.26.23a2.62,2.62,0,0,0,.93.53l-.39-.16.11.05a2.07,2.07,0,0,0,.8.21,1.55,1.55,0,0,0,1-.34,1.61,1.61,0,0,0,.57-1.67A2.12,2.12,0,0,0,57.11,25a4.8,4.8,0,0,0-.8-.56A1.76,1.76,0,0,0,55,24.26a1.7,1.7,0,0,0-.41,3.11Z" transform="translate(16.66 6.46)"/></g><g class="cls-13"><path class="cls-14" d="M56.06,35.69a2.69,2.69,0,0,0,0,1.13,1.6,1.6,0,0,0,.79,1.1,1.43,1.43,0,0,0,2.08-.85,2.16,2.16,0,0,0,0-1l.06.4a2.18,2.18,0,0,1,0-.25l-.05.39s0-.08,0-.12a1.54,1.54,0,0,0-.15-1.15,1.53,1.53,0,0,0-.89-.68,1.49,1.49,0,0,0-1.15.15,1.48,1.48,0,0,0-.68.89Z" transform="translate(16.66 6.46)"/></g><g class="cls-13"><path class="cls-14" d="M51.14,42.79l-.2.08a1.9,1.9,0,0,0-.63.63,1.78,1.78,0,0,0-.24.89,1.83,1.83,0,0,0,.52,1.25,1.81,1.81,0,0,0,1.24.52,1.72,1.72,0,0,0,.89-.24,1.78,1.78,0,0,0,.64-.64l.08-.19c.06-.13.11-.27.17-.4a1.28,1.28,0,0,0,0-.67,1.61,1.61,0,0,0-.46-1,2,2,0,0,0-.75-.43,1.76,1.76,0,0,0-1.29.17Z" transform="translate(16.66 6.46)"/></g><g class="cls-13"><path class="cls-14" d="M56.57,48.59a2.49,2.49,0,0,0,.14.44,2,2,0,0,0,.75.86,1.63,1.63,0,0,0,1.7,0A1.93,1.93,0,0,0,59.9,49a1.87,1.87,0,0,0,.14-.44,1.84,1.84,0,0,0-.46-1.75,1.88,1.88,0,0,0-1.27-.52,1.8,1.8,0,0,0-1.74,2.27Z" transform="translate(16.66 6.46)"/></g></g></g></g></g></svg>