<svg xmlns="http://www.w3.org/2000/svg" xmlns:xlink="http://www.w3.org/1999/xlink" viewBox="0 0 115.05 91.86"><defs><style>.cls-1{fill:#88ae1a;}.cls-2{fill:none;}.cls-3{isolation:isolate;}.cls-4{clip-path:url(#clip-path);}.cls-5{fill:#458750;}.cls-11,.cls-6{fill:#47654d;}.cls-7{fill:#1c652e;}.cls-8{fill:#1d5b27;}.cls-9{clip-path:url(#clip-path-2);}.cls-10{fill:#97b723;}.cls-11{mix-blend-mode:multiply;opacity:0.32;}.cls-12{fill:#91c19d;mix-blend-mode:soft-light;opacity:0.64;}.cls-13{fill:#334a04;mix-blend-mode:overlay;opacity:0.29;}.cls-14{opacity:0.35;}.cls-15{fill:#fff;}</style><clipPath id="clip-path" transform="translate(7.89 10.43)"><path class="cls-1" d="M34.25,2.11C51.11-2.8,71.2.64,82.43,14.78c5.46,6.87,8.13,11.47,9.1,20.38,1.2,11.08,1.2,18.37-4.51,28.18-1.89,3.25-8.39,8.49-11.45,10.51-5.5,3.62-12.27,4.29-18.75,4.37a130.24,130.24,0,0,1-22-1.61c-6.08-1-12.21-2.42-17.55-5.63C6.47,64.52-3.06,46.44.92,33.28,5.73,17.4,19.49,6.42,34.25,2.11Z"/></clipPath><clipPath id="clip-path-2" transform="translate(7.89 10.43)"><path class="cls-2" d="M34.25,2.11C51.11-2.8,71.2.64,82.43,14.78c5.46,6.87,8.13,11.47,9.1,20.38,1.2,11.08,1.2,18.37-4.51,28.18-1.89,3.25-8.39,8.49-11.45,10.51-5.5,3.62-12.27,4.29-18.75,4.37a130.24,130.24,0,0,1-22-1.61c-6.08-1-12.21-2.42-17.55-5.63C6.47,64.52-3.06,46.44.92,33.28,5.73,17.4,19.49,6.42,34.25,2.11Z"/></clipPath></defs><g class="cls-3"><g id="Capa_2" data-name="Capa 2"><g id="Layer_1" data-name="Layer 1"><g id="Layer_25" data-name="Layer 25"><path class="cls-1" d="M34.25,2.11C51.11-2.8,71.2.64,82.43,14.78c5.46,6.87,8.13,11.47,9.1,20.38,1.2,11.08,1.2,18.37-4.51,28.18-1.89,3.25-8.39,8.49-11.45,10.51-5.5,3.62-12.27,4.29-18.75,4.37a130.24,130.24,0,0,1-22-1.61c-6.08-1-12.21-2.42-17.55-5.63C6.47,64.52-3.06,46.44.92,33.28,5.73,17.4,19.49,6.42,34.25,2.11Z" transform="translate(7.89 10.43)"/><g class="cls-4"><path class="cls-5" d="M-1.59,41.16c1-1.84,2.27-3.5,3.19-5.42,1-2.08,2.1-4.14,3.29-6.12a40.56,40.56,0,0,1,8.69-10.06C20.17,14,27.83,9.29,36.19,6.93A43.85,43.85,0,0,1,49.62,5.27a44.43,44.43,0,0,1,13.58,3c7.64,2.74,15.65,5.49,20.64,12.3C86.61,24.39,89,28.44,92,32a39.6,39.6,0,0,0,4.61,4.73c2.11,1.77,6.14,2.22,7.11-1.07.85-2.91-1.22-4.57-3.06-6.38a42.25,42.25,0,0,1-4.45-5.09c-2.76-3.76-5-7.86-8.16-11.36-6-6.76-15-9.8-23.33-12.74a48.43,48.43,0,0,0-28.9-1.46C25.69,1.32,16.59,7,8.76,13.9,5,17.23,1.4,21.05-.71,25.68a41.85,41.85,0,0,0-2.56,7.38,34.42,34.42,0,0,0-.63,3.46c-.2,1.33-.14,2.6-.28,3.94s1.95,1.84,2.59.7Z" transform="translate(7.89 10.43)"/><path class="cls-6" d="M-3.14,48.2c1.87-.5-.56-1.08,1.09-2A54.92,54.92,0,0,0,4.5,41.7c3.13-2.61,6.82-6.92,10-9.48,5.55-4.48,12-7.1,18.61-10C40,19.18,49,17.93,56.11,20c29.88,8.48,40.62,22,45,22.26,3.42.22,2.08-3.45.22-5.66C99.94,34.86,97.91,34,96,32.92s-3.46-2.16-5.15-3.31c-3.21-2.19-6.33-4.52-9.46-6.82a68.41,68.41,0,0,0-8.19-5.22C69.36,15.36,63.38,12.45,59,12c-8.15-.89-16.84-1.24-24.67,1.54-7.5,2.67-14.11,7.27-20.17,12.37Q8.79,30.34,3.82,35.2a35.41,35.41,0,0,0-5,5.42c-1.3,2-2.78,3.78-3.45,6.05A1.25,1.25,0,0,0-3.14,48.2Z" transform="translate(7.89 10.43)"/><path class="cls-7" d="M-1.68,51.79c1.84.43,2-1.07,3.77-1.65s4.74-1.91,6.54-2.59c3.65-1.37,7.82-3.76,11.37-5.34,6.86-3,13.25-4,20.7-5.23,6.86-1.19,13.51-.25,20.08,1.82s15,3.51,21.59,5.31a73.59,73.59,0,0,0,14.48,2.07c1.89,0-1.18,1,.71,1s3.93.74,6,.67c2.43-.09,4.73-3,3-5.33a7.66,7.66,0,0,0-5.28-3.23A31.53,31.53,0,0,0,95.16,39,40.86,40.86,0,0,1,85.1,38.2c-6.95-1.52-13.49-4.44-20.21-6.69-7-2.37-14.37-3.8-21.82-3.05C35,29.27,27.35,31.88,20,35.24A110.41,110.41,0,0,0,8,41.72c-1.85,1.12-3.62,2.41-5.41,3.62s-4.07,2.31-5.1,4.29a1.5,1.5,0,0,0,.88,2.16Z" transform="translate(7.89 10.43)"/><path class="cls-8" d="M.65,54.21c2.46,2.15,4.3.8,7.47.92,3.53.15,8.59,1.44,12.05.78,6.65-1.26,13.22-3.18,20-3.53,14-.74,29.6,1.12,43.57.86,3.79-.07,10.94-1.83,14.65-2.59,1.76-.35-1.76,2.65-.06,2.07,2-.7,4.28-1.38,5.66-3.09,1.91-2.36.82-6.27-2.59-6.26-1.83,0-3.29.74-5,1.33A38.9,38.9,0,0,1,91.84,46a47.12,47.12,0,0,1-8.77,1.06,124.23,124.23,0,0,1-19.65-1.32C56.48,44.89,49.51,44,42.5,44.07s-13.7,1.55-20.42,3.24c-3.67.92-7.32,1.9-11,2.67C7.66,50.68,4,51,.87,52.53a1.08,1.08,0,0,0-.22,1.68Z" transform="translate(7.89 10.43)"/><path class="cls-6" d="M3.63,59c1.44,2.06,4.54,3,6.76,3.95A47.15,47.15,0,0,0,19.9,65.7a104.24,104.24,0,0,0,19.63,1.84c12.38.2,25.14.12,37.12-3.41A64.68,64.68,0,0,0,87,60.06a22.94,22.94,0,0,0,4.57-3.12A13.25,13.25,0,0,0,93.73,55c.57-.73.77-1.62,1.32-2.35,1.09-1.43,1.07-2-.27-1.81-.72.1-1.84-.29-2.58-.18s.57.94-.18,1.21c-1.65.6-4.26,1.82-5.85,2.59C83.52,55.72,64.59,58.52,58.93,59c-6,.47-12,.49-18.08.42-6.23-.07-12.47-.21-18.68-.77-3.55-.32-7.06-.84-10.59-1.23-2.45-.27-6.3-1-7.95,1.39a.21.21,0,0,0,0,.19Z" transform="translate(7.89 10.43)"/><path class="cls-6" d="M4,64.81c1.23,3,5.26,4.47,8,5.69,3.41,1.53,6.92,2.81,10.46,4,7.08,2.39,14.56,4.76,22,5.43a63.42,63.42,0,0,0,11.19-.26c3.69-.31,7.37-.65,11-1.2a51.58,51.58,0,0,0,19-6.87A95.8,95.8,0,0,0,95.19,65c2.78-2.17,6.74-5,6.85-8.86a2.51,2.51,0,0,0-1.82-2.4c-3.49-.47-6.4,1.91-9,4-2.31,1.87-4.69,3.66-7.18,5.3a46.28,46.28,0,0,1-16.67,7.11,90.76,90.76,0,0,1-9.73,1.23,96.17,96.17,0,0,1-10.45.58,89.52,89.52,0,0,1-20.65-3c-3.86-1-7-.82-10.85-1.72-1.86-.44-4.18-3.5-6.06-3.76s-3.58-.58-5.21.31A1,1,0,0,0,4,64.81Z" transform="translate(7.89 10.43)"/></g><g class="cls-9"><path class="cls-10" d="M.56,36.34a2.33,2.33,0,0,0-2.4,2c-.11.74.79,1.54,1.41.82,4.51-5.18,11.07-8,14.88-14a24.48,24.48,0,0,1,3.11-4.36,22.46,22.46,0,0,1,5-3.44,54.63,54.63,0,0,1,11-4.75A58.38,58.38,0,0,1,46.12,10a38.27,38.27,0,0,1,12.41,1.38,55.62,55.62,0,0,1,11.08,3.89c3.24,1.65,5.76,4.33,9.14,5.72,1.84.76,3.91,1.2,5.56,2.35s2.56,2.87,3.62,4.43c2.22,3.26,5.18,6.9,9.2,7.74a1.68,1.68,0,0,0,1.62-2.78,34.82,34.82,0,0,0-4-3.91,28.63,28.63,0,0,1-3.86-4.65,19.34,19.34,0,0,0-3-3.7,16.13,16.13,0,0,0-5.34-2.82,20.87,20.87,0,0,1-5-2.38c-1.56-1.09-3-2.32-4.65-3.27a48.19,48.19,0,0,0-12-4.45A45.75,45.75,0,0,0,48.38,5.85,53.36,53.36,0,0,0,35.61,8.08,61.2,61.2,0,0,0,23.4,12.69c-3.36,1.76-7,4.07-9.32,7.09-1.27,1.63-2.15,3.51-3.39,5.15a30.66,30.66,0,0,1-4.5,4.54C3.13,32.1.26,34.56-1.76,38.12l1.58.42a2.08,2.08,0,0,1,.81-1.93.15.15,0,0,0-.07-.27Z" transform="translate(7.89 10.43)"/><path class="cls-10" d="M-4.55,50.39A85.8,85.8,0,0,0,5.87,44.17c3-2,6.19-3.86,9.08-6.05s5.3-4.89,8.53-6.51a53.24,53.24,0,0,1,10.16-3.49A55,55,0,0,1,55.5,26.68a42.64,42.64,0,0,1,10.86,3,74.92,74.92,0,0,0,10.25,3.77C80.78,34.57,84.92,35.62,89,37s8,3.32,12.26,4a1.28,1.28,0,0,0,1-2.33c-3.19-2.31-7-3.61-10.65-5a108,108,0,0,0-11.41-3.48A71,71,0,0,1,69,26.49a48.56,48.56,0,0,0-10.9-3.41,58.94,58.94,0,0,0-22.46.5A52.21,52.21,0,0,0,25.08,27c-3.46,1.56-5.94,4-8.64,6.58C9.91,39.79,1.62,43.74-5,49.84c-.31.29.09.72.44.55Z" transform="translate(7.89 10.43)"/><path class="cls-10" d="M-2.14,54.11a67.25,67.25,0,0,0,9.87-2.92c2.82-1,5.67-1.87,8.39-3.12,1.39-.64,2.69-1.44,4.06-2.13a17.48,17.48,0,0,1,4.94-1.4c3.29-.54,6.59-1,9.91-1.41a105.79,105.79,0,0,1,20.67-.54c6.62.56,13.23,1.49,19.84,2.29,3.7.44,7.39.91,11,1.62s7.11,1.66,10.74,2.22A1,1,0,0,0,98.06,47c-5.43-3.68-12.42-4.31-18.78-5.13-6.84-.9-13.7-1.74-20.56-2.48a94.79,94.79,0,0,0-21,0c-6.54.76-13.52,1.3-19.23,4.82C11.9,48.27,4.14,49.42-2.6,53c-.63.34-.17,1.2.46,1.09Z" transform="translate(7.89 10.43)"/><path class="cls-10" d="M1.35,56.59c3,1,6.38.91,9.55,1s6.55.27,9.82.32a147.26,147.26,0,0,0,19.81-1,65.55,65.55,0,0,1,9.59-.72c3.26.08,6.51.47,9.76.65,6.31.34,12.84.33,19-1.14C82.4,55,85.72,53.73,89.26,53a71.06,71.06,0,0,1,11.18-1.21.6.6,0,0,0,.16-1.17c-6.28-1.58-12.4.47-18.65,1.25-3.22.4-6.4,1.06-9.63,1.34a93.84,93.84,0,0,1-9.49.32c-6.49-.1-12.86-1-19.34-.11s-13.09,1.7-19.73,2c-3.83.15-7.67.19-11.5.18-3.59,0-7.41-.46-10.91.4a.31.31,0,0,0,0,.59Z" transform="translate(7.89 10.43)"/><path class="cls-10" d="M4.34,63.38c3.2.39,6.46.55,9.62,1.18s5.92,1.76,8.88,2.65a98.65,98.65,0,0,0,18.37,3.9,61.59,61.59,0,0,0,19-1.26,87.39,87.39,0,0,1,9.54-1.13,26.76,26.76,0,0,0,8-2.2c3.24-1.4,6.47-2.75,9.82-3.88l5-1.66c1.54-.51,3.27-1,4.37-2.24a.86.86,0,0,0-.37-1.41c-2.76-.61-6,1.1-8.6,2-2.75.89-5.49,1.82-8.16,2.94s-5.57,2.58-8.6,3.06-6,.32-9,.8c-3.24.52-6.41,1.41-9.69,1.77a53,53,0,0,1-9.68.09,97.44,97.44,0,0,1-18.94-3.45,61.78,61.78,0,0,0-9.65-2.37,30.45,30.45,0,0,0-10,.75c-.31.07-.19.48.07.51Z" transform="translate(7.89 10.43)"/></g><g class="cls-9"><path class="cls-11" d="M106.3,46.59a3.46,3.46,0,0,0-3-3.37,3.38,3.38,0,0,0-3.76,2.46c-1.64,9.46-11.6,13-19.65,15.54-9.49,3-19.08,5.5-29.11,4.45a39.91,39.91,0,0,1-22.06-9.28,39.2,39.2,0,0,1-8.43-11,69.3,69.3,0,0,1-5.94-14.07,26.89,26.89,0,0,1,0-14A33.24,33.24,0,0,1,20.84,4.76c1.53-1.82-.55-5.26-2.76-3.58a32.2,32.2,0,0,0-5.36,5,24.72,24.72,0,0,0-3.59,6.43,30.1,30.1,0,0,1,1.13-5C11.43,3.94,6,1.78,4.12,5a41.54,41.54,0,0,0-4,9.25c-1.17-2.72-6-3.15-6.57.34-1.72,9.79-2.13,20-.2,29.82C-4.78,53.66.81,60.73,8.14,66.37c1.74,1.34,3.55,2.59,5.41,3.76A27.83,27.83,0,0,0,17,73.05c1.65,1.11,3.65,1.9,5.21,3.1a2.08,2.08,0,0,0,2.53-.28A75.44,75.44,0,0,0,55,81.4a74.77,74.77,0,0,0,14-1.67c3.92-.85,9.56-1.8,11.94-5.46a42.78,42.78,0,0,0,6.91-2C98.2,68.15,107.51,58.49,106.3,46.59Z" transform="translate(7.89 10.43)"/><path class="cls-12" d="M101.79,11.11a37.59,37.59,0,0,0-16.25-16,46.75,46.75,0,0,0-23.63-5.49c-8.32.44-17.13,4.92-18.54,13.9,0,0,0,.08,0,.11a24.65,24.65,0,0,0-1.58,8.6,29.49,29.49,0,0,0,8.47,21.91A38.37,38.37,0,0,0,72.49,45.38,29.08,29.08,0,0,0,86,43.69c4.14-1.49,8.52-3.24,11.59-6.52A26.47,26.47,0,0,0,104,25,21.18,21.18,0,0,0,101.79,11.11Z" transform="translate(7.89 10.43)"/></g><g class="cls-9"><path class="cls-13" d="M105.35,43a4.17,4.17,0,0,0-1.45-5.55,4,4,0,0,0-2.14-.52c0-.67.08-1.35.09-2a3.36,3.36,0,0,0-6.21-1.68c-3.4,5.79-9.19,9.74-15.37,12.15a57.33,57.33,0,0,1-22.78,4.09A43.56,43.56,0,0,1,27.12,35.05a58.17,58.17,0,0,1-3.58-7.42c-1.46-3.6-2.74-7.29-3.93-11-.25-.75-.46-1.48-.65-2.22A16.42,16.42,0,0,1,23.63,3.72c1.27-1.3-.61-3.09-2-2a18.47,18.47,0,0,0-3.45,3.79,5.74,5.74,0,0,0-.83-1.61c-1.28-1.72-3.7-2.42-5.38-.69a12.53,12.53,0,0,0-2.62,4h0a3.15,3.15,0,0,0-3,2.59c-1.75-.84-4-.64-4.95,1.4C-4.1,23.46-7,37.32-1.08,49.91c.27.6.58,1.17.9,1.74A40.14,40.14,0,0,0,4,61.84c2.9,4.75,7.55,8.62,11.9,12a29.07,29.07,0,0,0,16.38,6.6A46.65,46.65,0,0,0,43,79.73a42.42,42.42,0,0,0,4.73.8,45.08,45.08,0,0,0,15.48-1c5.23-1.27,10.15-3.64,15-6,9.09-4.45,18.64-10.12,23-19.69a4.29,4.29,0,0,0,0-4c.56-.75,1.1-1.51,1.62-2.3A30.4,30.4,0,0,0,105.35,43Z" transform="translate(7.89 10.43)"/></g><g class="cls-14"><path class="cls-15" d="M53.85,12.87a8.26,8.26,0,0,0,1.64.7c.55.21,1.08.44,1.62.69a2.29,2.29,0,0,0,3-.8,2.26,2.26,0,0,0-.8-3.05A6.14,6.14,0,0,0,55,10c-1.18.37-2.57,1.91-1.1,2.92Z" transform="translate(7.89 10.43)"/></g><path class="cls-15" d="M68.77,19.19c.72,1.39,2.34,2.32,3.45,3.4a28.1,28.1,0,0,1,3.38,3.77,2.86,2.86,0,1,0,4.51-3.47,15.62,15.62,0,0,0-4.9-4.18c-1.6-.82-3.93-1.88-5.74-1.24a1.2,1.2,0,0,0-.7,1.72Z" transform="translate(7.89 10.43)"/></g></g></g></g></svg>